<?xml version="1.0" encoding="UTF-8"?>
<svg width="700pt" height="700pt" version="1.1" viewBox="0 0 700 700" xmlns="http://www.w3.org/2000/svg" xmlns:xlink="http://www.w3.org/1999/xlink">
 <defs>
  <symbol id="v" overflow="visible">
   <path d="m3.8438-0.23438c-0.19922 0.10547-0.40625 0.18359-0.625 0.23438-0.21094 0.050781-0.43359 0.078125-0.67188 0.078125-0.69922 0-1.25-0.19141-1.6562-0.57812-0.40625-0.39453-0.60938-0.92578-0.60938-1.5938 0-0.66406 0.20312-1.1914 0.60938-1.5781 0.40625-0.38281 0.95703-0.57812 1.6562-0.57812 0.23828 0 0.46094 0.027344 0.67188 0.078125 0.21875 0.054687 0.42578 0.13281 0.625 0.23438v0.85938c-0.19922-0.13281-0.39844-0.23438-0.59375-0.29688-0.19922-0.0625-0.40234-0.09375-0.60938-0.09375-0.38672 0-0.6875 0.125-0.90625 0.375-0.21875 0.24219-0.32812 0.57422-0.32812 1 0 0.4375 0.10938 0.78125 0.32812 1.0312 0.21875 0.24219 0.51953 0.35938 0.90625 0.35938 0.20703 0 0.41016-0.03125 0.60938-0.09375 0.19531-0.0625 0.39453-0.16016 0.59375-0.29688z"/>
  </symbol>
  <symbol id="d" overflow="visible">
   <path d="m2.8125-2.2812c-0.09375-0.039062-0.18359-0.070312-0.26562-0.09375-0.085937-0.019531-0.17188-0.03125-0.26562-0.03125-0.25 0-0.44922 0.085938-0.59375 0.25-0.13672 0.16797-0.20312 0.40625-0.20312 0.71875v1.4375h-1v-3.1406h1v0.51562c0.125-0.19531 0.26953-0.34375 0.4375-0.4375 0.16406-0.10156 0.36719-0.15625 0.60938-0.15625 0.03125 0 0.066406 0.007812 0.10938 0.015625 0.039063 0 0.097656 0.007813 0.17188 0.015625z"/>
  </symbol>
  <symbol id="b" overflow="visible">
   <path d="m3.6094-1.5781v0.28125h-2.3438c0.03125 0.24219 0.11328 0.42188 0.25 0.54688 0.14453 0.11719 0.35156 0.17188 0.625 0.17188 0.20703 0 0.42188-0.03125 0.64062-0.09375s0.44531-0.16016 0.6875-0.29688v0.78125c-0.24219 0.085938-0.48047 0.14844-0.71875 0.1875-0.24219 0.050781-0.47656 0.078125-0.70312 0.078125-0.57422 0-1.0156-0.14062-1.3281-0.42188-0.3125-0.28906-0.46875-0.69531-0.46875-1.2188 0-0.50781 0.14844-0.91016 0.45312-1.2031 0.3125-0.30078 0.73828-0.45312 1.2812-0.45312 0.48828 0 0.87891 0.15234 1.1719 0.45312 0.30078 0.29297 0.45312 0.6875 0.45312 1.1875zm-1.0312-0.32812c0-0.1875-0.058594-0.33594-0.17188-0.45312-0.10547-0.125-0.24609-0.1875-0.42188-0.1875-0.19922 0-0.35938 0.058594-0.48438 0.17188-0.11719 0.10547-0.1875 0.26172-0.21875 0.46875z"/>
  </symbol>
  <symbol id="l" overflow="visible">
   <path d="m1.8906-1.4062c-0.21094 0-0.37109 0.039062-0.48438 0.10938-0.10547 0.0625-0.15625 0.16797-0.15625 0.3125 0 0.125 0.039062 0.22656 0.125 0.29688 0.09375 0.074219 0.21094 0.10938 0.35938 0.10938 0.1875 0 0.34375-0.066406 0.46875-0.20312 0.13281-0.13281 0.20312-0.30469 0.20312-0.51562v-0.10938zm1.5312-0.39062v1.7969h-1.0156v-0.46875c-0.13672 0.19922-0.28906 0.33984-0.45312 0.42188-0.16797 0.082031-0.37109 0.125-0.60938 0.125-0.32422 0-0.58984-0.09375-0.79688-0.28125-0.19922-0.1875-0.29688-0.42969-0.29688-0.73438 0-0.375 0.125-0.64453 0.375-0.8125 0.25-0.16406 0.64453-0.25 1.1875-0.25h0.59375v-0.09375c0-0.15625-0.0625-0.26953-0.1875-0.34375-0.125-0.070312-0.32031-0.10938-0.57812-0.10938-0.21875 0-0.42188 0.023437-0.60938 0.0625-0.17969 0.042969-0.35156 0.10938-0.51562 0.20312v-0.76562c0.21875-0.050781 0.4375-0.09375 0.65625-0.125s0.42969-0.046875 0.64062-0.046875c0.57031 0 0.98438 0.11719 1.2344 0.34375 0.25 0.21875 0.375 0.57812 0.375 1.0781z"/>
  </symbol>
  <symbol id="a" overflow="visible">
   <path d="m1.5781-4.0312v0.89062h1.0312v0.71875h-1.0312v1.3281c0 0.14844 0.023437 0.24609 0.078125 0.29688 0.0625 0.054687 0.17578 0.078125 0.34375 0.078125h0.51562v0.71875h-0.85938c-0.39844 0-0.67969-0.082031-0.84375-0.25-0.15625-0.16406-0.23438-0.44531-0.23438-0.84375v-1.3281h-0.5v-0.71875h0.5v-0.89062z"/>
  </symbol>
  <symbol id="f" overflow="visible">
   <path d="m2.6094-2.6719v-1.6875h1.0156v4.3594h-1.0156v-0.45312c-0.13672 0.1875-0.28906 0.32422-0.45312 0.40625-0.16797 0.082031-0.35938 0.125-0.57812 0.125-0.38672 0-0.70312-0.14844-0.95312-0.45312-0.25-0.3125-0.375-0.70703-0.375-1.1875 0-0.48828 0.125-0.88281 0.375-1.1875 0.25-0.3125 0.56641-0.46875 0.95312-0.46875 0.21875 0 0.41016 0.046875 0.57812 0.14062 0.16406 0.085937 0.31641 0.21875 0.45312 0.40625zm-0.65625 2.0312c0.21875 0 0.37891-0.078125 0.48438-0.23438 0.11328-0.16406 0.17188-0.39453 0.17188-0.6875 0-0.30078-0.058594-0.53125-0.17188-0.6875-0.10547-0.15625-0.26562-0.23438-0.48438-0.23438-0.21094 0-0.37109 0.078125-0.48438 0.23438-0.11719 0.15625-0.17188 0.38672-0.17188 0.6875 0 0.29297 0.054687 0.52344 0.17188 0.6875 0.11328 0.15625 0.27344 0.23438 0.48438 0.23438z"/>
  </symbol>
  <symbol id="k" overflow="visible">
   <path d="m2.1562-0.64062c0.20703 0 0.36719-0.078125 0.48438-0.23438 0.11328-0.16406 0.17188-0.39453 0.17188-0.6875 0-0.30078-0.058594-0.53125-0.17188-0.6875-0.11719-0.15625-0.27734-0.23438-0.48438-0.23438-0.21875 0-0.38672 0.078125-0.5 0.23438-0.11719 0.15625-0.17188 0.38672-0.17188 0.6875 0 0.29297 0.054687 0.52344 0.17188 0.6875 0.11328 0.15625 0.28125 0.23438 0.5 0.23438zm-0.67188-2.0312c0.13281-0.1875 0.28516-0.32031 0.45312-0.40625 0.16406-0.09375 0.35938-0.14062 0.57812-0.14062 0.39453 0 0.71094 0.15625 0.95312 0.46875 0.25 0.30469 0.375 0.69922 0.375 1.1875 0 0.48047-0.125 0.875-0.375 1.1875-0.24219 0.30469-0.55859 0.45312-0.95312 0.45312-0.21875 0-0.41406-0.042969-0.57812-0.125-0.16797-0.082031-0.32031-0.21875-0.45312-0.40625v0.45312h-1v-4.3594h1z"/>
  </symbol>
  <symbol id="e" overflow="visible">
   <path d="m0.0625-3.1406h1.0156l0.84375 2.125 0.70312-2.125h1.0156l-1.3281 3.4375c-0.13672 0.35156-0.29297 0.59766-0.46875 0.73438-0.16797 0.13281-0.39844 0.20312-0.6875 0.20312h-0.57812v-0.65625h0.3125c0.16406 0 0.28516-0.027344 0.35938-0.078125 0.082031-0.054688 0.14453-0.15234 0.1875-0.29688l0.03125-0.078125z"/>
  </symbol>
  <symbol id="j" overflow="visible">
   <path d="m3.0625-0.76562h-1.6875l-0.26562 0.76562h-1.0781l1.5469-4.1875h1.2812l1.5469 4.1875h-1.0781zm-1.4219-0.76562h1.1562l-0.57812-1.6719z"/>
  </symbol>
  <symbol id="i" overflow="visible">
   <path d="m3.3906-2.6094c0.125-0.19531 0.27344-0.34766 0.45312-0.45312 0.17578-0.10156 0.36719-0.15625 0.57812-0.15625 0.35156 0 0.625 0.11719 0.8125 0.34375 0.1875 0.21875 0.28125 0.54297 0.28125 0.96875v1.9062h-1v-1.6406-0.0625-0.125c0-0.21875-0.03125-0.375-0.09375-0.46875-0.0625-0.10156-0.16797-0.15625-0.3125-0.15625-0.19922 0-0.35156 0.078125-0.45312 0.23438-0.09375 0.15625-0.14844 0.38281-0.15625 0.67188v1.5469h-1v-1.6406c0-0.34375-0.03125-0.5625-0.09375-0.65625-0.0625-0.10156-0.16797-0.15625-0.3125-0.15625-0.19922 0-0.35156 0.078125-0.45312 0.23438-0.10547 0.15625-0.15625 0.38281-0.15625 0.67188v1.5469h-1.0156v-3.1406h1.0156v0.46875c0.125-0.17578 0.26562-0.3125 0.42188-0.40625s0.33203-0.14062 0.53125-0.14062c0.21875 0 0.41016 0.058594 0.57812 0.17188 0.16406 0.10547 0.28906 0.25 0.375 0.4375z"/>
  </symbol>
  <symbol id="h" overflow="visible">
   <path d="m3.6406-1.9062v1.9062h-1.0156v-1.4531c0-0.28125-0.007812-0.46875-0.015625-0.5625-0.011719-0.10156-0.03125-0.17969-0.0625-0.23438-0.042969-0.0625-0.10156-0.10938-0.17188-0.14062-0.0625-0.039063-0.13672-0.0625-0.21875-0.0625-0.21094 0-0.375 0.085937-0.5 0.25-0.11719 0.15625-0.17188 0.375-0.17188 0.65625v1.5469h-1v-4.3594h1v1.6875c0.14453-0.1875 0.30078-0.32031 0.46875-0.40625 0.17578-0.09375 0.36719-0.14062 0.57812-0.14062 0.36328 0 0.64062 0.11719 0.82812 0.34375 0.1875 0.21875 0.28125 0.54297 0.28125 0.96875z"/>
  </symbol>
  <symbol id="u" overflow="visible">
   <path d="m2.9375-3.0312v0.75c-0.21875-0.082031-0.42969-0.14453-0.625-0.1875-0.19922-0.050781-0.38672-0.078125-0.5625-0.078125-0.19922 0-0.34375 0.027344-0.4375 0.078125-0.085938 0.042969-0.125 0.11719-0.125 0.21875 0 0.074219 0.03125 0.13672 0.09375 0.1875 0.070312 0.042969 0.19531 0.074219 0.375 0.09375l0.1875 0.015625c0.50781 0.074219 0.85156 0.18359 1.0312 0.32812 0.17578 0.14844 0.26562 0.38281 0.26562 0.70312 0 0.33594-0.125 0.58594-0.375 0.75-0.24219 0.16797-0.60547 0.25-1.0938 0.25-0.21094 0-0.42969-0.015625-0.65625-0.046875-0.21875-0.03125-0.44531-0.078125-0.67188-0.14062v-0.76562c0.19531 0.09375 0.39844 0.16797 0.60938 0.21875 0.21875 0.054688 0.42969 0.078125 0.64062 0.078125 0.19531 0 0.34375-0.023437 0.4375-0.078125 0.10156-0.0625 0.15625-0.14453 0.15625-0.25 0-0.09375-0.039062-0.16016-0.10938-0.20312-0.0625-0.039063-0.19531-0.070313-0.39062-0.09375l-0.1875-0.03125c-0.44922-0.050781-0.76172-0.14844-0.9375-0.29688-0.17969-0.15625-0.26562-0.39062-0.26562-0.70312 0-0.33203 0.11328-0.57812 0.34375-0.73438 0.22656-0.16406 0.57812-0.25 1.0469-0.25 0.1875 0 0.37891 0.015625 0.57812 0.046875 0.20703 0.03125 0.42969 0.078125 0.67188 0.14062z"/>
  </symbol>
  <symbol id="t" overflow="visible">
   <path d="m3.4375-4.0469v0.89062c-0.23047-0.10156-0.45312-0.17969-0.67188-0.23438-0.21875-0.050781-0.42969-0.078125-0.625-0.078125-0.25 0-0.4375 0.039062-0.5625 0.10938-0.125 0.0625-0.1875 0.17188-0.1875 0.32812 0 0.10547 0.039063 0.1875 0.125 0.25 0.082031 0.0625 0.23438 0.12109 0.45312 0.17188l0.45312 0.09375c0.46875 0.09375 0.79688 0.23438 0.98438 0.42188 0.19531 0.1875 0.29688 0.46094 0.29688 0.8125 0 0.46094-0.13672 0.80469-0.40625 1.0312-0.27344 0.21875-0.6875 0.32812-1.25 0.32812-0.26172 0-0.52734-0.027344-0.79688-0.078125-0.27344-0.039062-0.53906-0.11328-0.79688-0.21875v-0.90625c0.25781 0.13672 0.51562 0.24219 0.76562 0.3125 0.25 0.074219 0.48828 0.10938 0.71875 0.10938 0.23828 0 0.42188-0.035156 0.54688-0.10938 0.125-0.082031 0.1875-0.19531 0.1875-0.34375 0-0.125-0.042969-0.22266-0.125-0.29688-0.085937-0.070313-0.25781-0.13281-0.51562-0.1875l-0.40625-0.09375c-0.42969-0.09375-0.74219-0.23828-0.9375-0.4375-0.1875-0.19531-0.28125-0.45703-0.28125-0.78125 0-0.41406 0.13281-0.73438 0.40625-0.95312 0.26953-0.22656 0.65625-0.34375 1.1562-0.34375 0.22656 0 0.46094 0.015625 0.70312 0.046875 0.25 0.03125 0.50391 0.085937 0.76562 0.15625z"/>
  </symbol>
  <symbol id="g" overflow="visible">
   <path d="m0.45312-1.2188v-1.9219h1v0.3125 0.65625 0.5c0 0.25 0.003906 0.43359 0.015625 0.54688 0.007812 0.11719 0.03125 0.19922 0.0625 0.25 0.039062 0.0625 0.09375 0.11719 0.15625 0.15625 0.070312 0.03125 0.14844 0.046875 0.23438 0.046875 0.20703 0 0.36719-0.078125 0.48438-0.23438 0.125-0.16406 0.1875-0.39453 0.1875-0.6875v-1.5469h1v3.1406h-1v-0.45312c-0.14844 0.1875-0.30859 0.32422-0.48438 0.40625-0.16797 0.082031-0.35156 0.125-0.54688 0.125-0.36719 0-0.64062-0.10938-0.82812-0.32812s-0.28125-0.53906-0.28125-0.96875z"/>
  </symbol>
  <symbol id="s" overflow="visible">
   <path d="m0.48438-3.1406h1v3.1406h-1zm0-1.2188h1v0.8125h-1z"/>
  </symbol>
  <symbol id="c" overflow="visible">
   <path d="m1.9688-2.5c-0.21875 0-0.38672 0.085938-0.5 0.25-0.11719 0.15625-0.17188 0.38672-0.17188 0.6875 0 0.30469 0.054687 0.53125 0.17188 0.6875 0.11328 0.15625 0.28125 0.23438 0.5 0.23438s0.38281-0.078125 0.5-0.23438c0.125-0.15625 0.1875-0.38281 0.1875-0.6875 0-0.30078-0.0625-0.53125-0.1875-0.6875-0.11719-0.16406-0.28125-0.25-0.5-0.25zm0-0.71875c0.53906 0 0.96094 0.14844 1.2656 0.4375 0.30078 0.29297 0.45312 0.69922 0.45312 1.2188 0 0.51172-0.15234 0.91406-0.45312 1.2031-0.30469 0.29297-0.72656 0.4375-1.2656 0.4375-0.54297 0-0.96484-0.14453-1.2656-0.4375-0.30469-0.28906-0.45312-0.69141-0.45312-1.2031 0-0.51953 0.14844-0.92578 0.45312-1.2188 0.30078-0.28906 0.72266-0.4375 1.2656-0.4375z"/>
  </symbol>
  <symbol id="r" overflow="visible">
   <path d="m2.5469-4.3594v0.65625h-0.5625c-0.13672 0-0.23438 0.027344-0.29688 0.078125-0.054688 0.054688-0.078125 0.14062-0.078125 0.26562v0.21875h0.85938v0.71875h-0.85938v2.4219h-1v-2.4219h-0.5v-0.71875h0.5v-0.21875c0-0.33203 0.09375-0.58203 0.28125-0.75 0.1875-0.16406 0.48438-0.25 0.89062-0.25z"/>
  </symbol>
  <symbol id="q" overflow="visible">
   <path d="m0.53125-4.1875h1.2031l1.5156 2.875v-2.875h1.0156v4.1875h-1.2031l-1.5156-2.875v2.875h-1.0156z"/>
  </symbol>
  <symbol id="p" overflow="visible">
   <path d="m3.6406-1.9062v1.9062h-1.0156v-1.4688c0-0.26953-0.007812-0.45312-0.015625-0.54688-0.011719-0.10156-0.03125-0.17969-0.0625-0.23438-0.042969-0.0625-0.10156-0.10938-0.17188-0.14062-0.0625-0.039063-0.13672-0.0625-0.21875-0.0625-0.21094 0-0.375 0.085937-0.5 0.25-0.11719 0.15625-0.17188 0.375-0.17188 0.65625v1.5469h-1v-3.1406h1v0.46875c0.14453-0.1875 0.30078-0.32031 0.46875-0.40625 0.17578-0.09375 0.36719-0.14062 0.57812-0.14062 0.36328 0 0.64062 0.11719 0.82812 0.34375 0.1875 0.21875 0.28125 0.54297 0.28125 0.96875z"/>
  </symbol>
  <symbol id="o" overflow="visible">
   <path d="m0.53125-4.1875h1.7812c0.53125 0 0.9375 0.12109 1.2188 0.35938 0.28906 0.24219 0.4375 0.57812 0.4375 1.0156s-0.14844 0.77734-0.4375 1.0156c-0.28125 0.23047-0.6875 0.34375-1.2188 0.34375h-0.70312v1.4531h-1.0781zm1.0781 0.78125v1.1719h0.59375c0.20703 0 0.36719-0.046875 0.48438-0.14062 0.11328-0.10156 0.17188-0.25 0.17188-0.4375s-0.058594-0.33203-0.17188-0.4375c-0.11719-0.10156-0.27734-0.15625-0.48438-0.15625z"/>
  </symbol>
  <symbol id="n" overflow="visible">
   <path d="m0.48438-3.1406h1v3.0781c0 0.42578-0.10547 0.75-0.3125 0.96875-0.19922 0.21875-0.48438 0.32812-0.85938 0.32812h-0.5v-0.65625h0.17188c0.1875 0 0.31641-0.042969 0.39062-0.125 0.070312-0.085937 0.10938-0.25781 0.10938-0.51562zm0-1.2188h1v0.8125h-1z"/>
  </symbol>
  <symbol id="m" overflow="visible">
   <path d="m3.0156-3.0312v0.8125c-0.13672-0.09375-0.27344-0.16016-0.40625-0.20312-0.13672-0.050781-0.28125-0.078125-0.4375-0.078125-0.27344 0-0.48438 0.085938-0.64062 0.25-0.15625 0.16797-0.23438 0.39844-0.23438 0.6875 0 0.29297 0.078125 0.52344 0.23438 0.6875 0.15625 0.15625 0.36719 0.23438 0.64062 0.23438 0.15625 0 0.30469-0.019531 0.45312-0.0625 0.14453-0.050781 0.27344-0.11719 0.39062-0.20312v0.8125c-0.15625 0.0625-0.32031 0.10156-0.48438 0.125-0.15625 0.03125-0.32031 0.046875-0.48438 0.046875-0.5625 0-1.0078-0.14453-1.3281-0.4375-0.3125-0.28906-0.46875-0.69141-0.46875-1.2031 0-0.51953 0.15625-0.92578 0.46875-1.2188 0.32031-0.28906 0.76562-0.4375 1.3281-0.4375 0.16406 0 0.32812 0.015625 0.48438 0.046875 0.16406 0.03125 0.32812 0.078125 0.48438 0.14062z"/>
  </symbol>
 </defs>
 <g>
  <path d="m266.75 201.76c0.64453 6.4531 6.0195 11.32 12.504 11.32h10.625l41.113-44.055c-0.53516-1.1953-1.2617-2.3164-2.1758-3.3242-2.4141-2.6641-5.7227-4.1328-9.3164-4.1328l-16.141 0.003906-36.695 39.32z"/>
  <path d="m265.45 188.73 25.348-27.164h-14.172c-3.5938 0-6.9023 1.4688-9.3164 4.1328-2.4141 2.6641-3.543 6.1016-3.1875 9.6797z"/>
  <path d="m350 326.9c40.902 0 75.594-32.418 87.855-52.852 9.2656-15.441 16.84-45.48 20.277-80.398-0.20312-4.7539-3.4805-67.754-32.977-93.102-21.102-18.129-38.555-20.223-55.438-22.25-8.7695-1.0508-17.055-2.0469-25.152-5.3047-12.629-5.082-21.984-13.145-28.027-19.656-0.011718 0.089843-0.023437 0.18359-0.035156 0.27344-2.5703 19.922-23.16 40.203-41.328 58.094-11.273 11.105-21.922 21.594-26.133 29.879-10.723 21.098-7.2617 51.352-7.2227 51.652 3.4336 35.148 11.027 65.32 20.32 80.809 12.266 20.438 46.957 52.855 87.859 52.855zm-95.016-150.61c-0.60547-6.1016 1.4023-12.207 5.5195-16.75 4.1133-4.543 9.9922-7.1523 16.121-7.1523h42.871c6.1289 0 12.008 2.6055 16.121 7.1484 2.418 2.668 4.0859 5.8828 4.9453 9.3125 6.2539-2.2305 12.621-2.2305 18.875 0 0.85938-3.4297 2.5273-6.6445 4.9453-9.3125 4.1133-4.543 9.9922-7.1484 16.121-7.1484h42.871c6.1328 0 12.008 2.6055 16.121 7.1523 4.1133 4.543 6.125 10.648 5.5195 16.75l-2.625 26.379c-1.1133 11.168-10.418 19.594-21.641 19.594h-35.016c1.293 9.7852-4.7578 19.336-14.547 22.109-6.9961 1.9805-14.121 2.9844-21.188 2.9844-7.0742 0-14.203-1.0039-21.195-2.9883-9.7773-2.7695-15.82-12.312-14.539-22.105h-35.016c-11.223 0-20.527-8.4219-21.641-19.594z"/>
  <path d="m316.87 213.08c6.4844 0 11.859-4.8672 12.504-11.32l1.957-19.645-28.898 30.965z"/>
  <path d="m223.61 234.2c3.6914 10.113 11.578 17.367 20.012 19.035-4.5-14.809-8.0547-33.016-10.312-53.246-10.422 5.4141-14.789 20.277-9.6992 34.211z"/>
  <path d="m420.75 213.08c6.4844 0 11.863-4.8672 12.504-11.32l2.625-26.379c0.35547-3.5781-0.77734-7.0156-3.1875-9.6797-0.09375-0.10156-0.19141-0.1875-0.28516-0.28516l-44.48 47.664z"/>
  <path d="m370.63 201.76c0.41797 4.2031 2.8477 7.7188 6.2812 9.6719l46.527-49.855c-0.019531 0-0.039062-0.003907-0.058594-0.003907h-17.078l-35.848 38.414z"/>
  <path d="m348 64.477c6.9688 2.8047 14.664 3.7305 22.816 4.707 17.395 2.0859 37.109 4.4531 60.328 24.402 29.723 25.539 35.102 81.977 36.008 96.617 0.44922 0.15234 0.89844 0.3125 1.3438 0.49219 16.141 6.4688 23.551 27.395 16.523 46.648-5.4766 14.992-18.461 25.133-31.832 25.402-2.3086 6.2031-4.8047 11.598-7.457 16.02-9.9492 16.582-33.598 40.441-63.602 51.398v15.754c14.883 2.5117 29.52 11.02 41.617 24.277 2.9453 3.2305 5.6367 6.6445 8.0312 10.141 12.281 8.3516 23.672 17.988 34.133 28.848 3.8867-3.7539 10.152-11.262 10.152-20.66 0-6.5781-1.3438-11.879-2.7695-17.492-1.9062-7.5078-3.875-15.277-2.7109-26.199 1.2891-12.086 7.3242-19.426 12.645-25.902 3.3203-4.0391 6.1875-7.5273 7.4531-11.602 1.8555-5.9688 1.082-13.863 0.26172-22.223-0.65625-6.7109-1.3359-13.648-0.61328-20.012 0.72266-6.375 3.5859-14.074 6.6172-22.227 3.6992-9.9453 7.8867-21.219 7.8867-30.027s-4.4844-19.301-9.2344-30.41c-3.5859-8.3867-7.293-17.059-9.2461-25.582-0.8125-3.543-1.7148-8.3516-2.7578-13.922-4.8594-25.926-12.992-69.312-31.355-93.188-25.383-33.004-59.781-49.738-102.24-49.738-16.645 0-32.047 2.5859-46.156 7.6992 4.7695 5.832 11.402 16.383 12.906 31.238 2.4883 3.6836 13.223 18.281 31.25 25.539z"/>
  <path d="m369.24 187.83 24.504-26.258h-13.238c-3.5938 0-6.9023 1.4688-9.3164 4.1328s-3.543 6.1016-3.1875 9.6797z"/>
  <path d="m323.67 221.86c-1.6641 5.8789 1.7617 12.012 7.6367 13.676 12.344 3.5 25.012 3.5039 37.375 0.003906 5.875-1.668 9.3047-7.7891 7.6484-13.652-0.078125-0.28125-0.18359-0.54688-0.28516-0.82031-4.0469-1.3867-7.5664-3.9102-10.137-7.2422-1.0977-0.023438-2.1992 0.097656-3.2539 0.39453-4.2031 1.1875-8.4609 1.7891-12.664 1.7891-4.1992 0-8.4492-0.60156-12.629-1.7852-1.0664-0.30469-2.1719-0.42969-3.2656-0.41016-2.5742 3.3359-6.0977 5.8633-10.148 7.25-0.097657 0.26953-0.20312 0.52734-0.27734 0.79688z"/>
  <path d="m360.15 205.39c0.5625-0.16016 1.1328-0.28516 1.707-0.39453-0.16016-0.76172-0.28906-1.5312-0.36719-2.3242l-2.3906-23.992c-6.1797-3.1602-12.027-3.1602-18.203 0l-2.3906 23.992c-0.078124 0.78906-0.20703 1.5625-0.36719 2.3242 0.58594 0.11328 1.1641 0.24219 1.7383 0.40625 6.7031 1.8984 13.512 1.9023 20.273-0.011719z"/>
  <path d="m194.7 465.18c-1.7266-1.0117-3.8008-1.1953-5.6875-0.50781-20.367 7.4297-41.691 10.891-63.359 10.293h-0.007812-0.011719c-0.039063 0-0.078125 0-0.11719-0.003906-2.0078-0.0625-3.918 0.77344-5.2344 2.2812-1.3086 1.4922-1.875 3.4766-1.5586 5.4375l12.531 77.324h81.25l-14.609-90.152c-0.31641-1.9688-1.4844-3.668-3.1953-4.6719z"/>
  <path d="m424.32 499.82c1.9961-20.465-8.3633-41.996-8.4688-42.211-0.80078-1.6445-0.55078-3.6055 0.63672-4.9922 0.19531-0.22656 19.641-23.273 18.07-42.156-1.5742-18.949-24.332-49.492-52.43-55.203v201.39c23.293-14.512 40.266-37.066 42.191-56.832z"/>
  <path d="m327.05 333.03v52.84c1.7266 3.6406 9.8438 19.16 22.949 19.16 13.098 0 21.215-15.504 22.949-19.16v-52.84c-7.3711 1.9297-15.047 3.0469-22.949 3.0469-7.9023 0.003906-15.582-1.1133-22.949-3.0469z"/>
  <path d="m476.39 234.2c5.0898-13.938 0.72266-28.797-9.6953-34.207-2.2578 20.23-5.8125 38.43-10.312 53.242 8.4375-1.6758 16.316-8.9219 20.008-19.035z"/>
  <path d="m350 414.21c-10.059 0-17.684-5.6758-22.949-11.684v157.47h45.895v-157.47c-5.2578 6.0078-12.887 11.684-22.945 11.684z"/>
  <path d="m574.48 474.96c-0.039063 0-0.078125 0-0.11719 0.003906h-0.011719-0.007812c-21.664 0.59375-42.988-2.8633-63.359-10.293-1.8906-0.6875-3.9609-0.50391-5.6875 0.50781-1.7148 1.0039-2.8789 2.707-3.1953 4.668l-14.609 90.152h81.25l12.531-77.324c0.31641-1.9609-0.25-3.9453-1.5586-5.4375-1.3164-1.5039-3.2148-2.3438-5.2344-2.2773z"/>
  <path d="m628.73 393.71c-2.6133-4.5273-8.4258-6.0859-12.953-3.4727l-17.973 10.375c-1.5742 0.91016-3.5391 0.80078-5.0039-0.26953-1.4688-1.0742-2.1641-2.9102-1.7734-4.6875l16.035-73.273c0.36719-1.6836 0.058594-3.4102-0.87109-4.8633s-2.3711-2.4531-4.0547-2.8242c-1.6836-0.37109-3.4102-0.058593-4.8633 0.87109-1.4531 0.92969-2.4531 2.3711-2.8203 4.0547l-11.855 54.168c0 0.003907-0.003906 0.011719-0.003906 0.015626-0.54297 2.4766-2.9883 4.0469-5.4648 3.5039-2.4766-0.54297-4.0469-2.9883-3.5039-5.4648 0.36719-1.6836 0.058594-3.4102-0.87109-4.8633s-2.3711-2.4531-4.0547-2.8203c-1.6836-0.36719-3.4102-0.058594-4.8633 0.87109s-2.4531 2.3711-2.8203 4.0547c-0.54297 2.4766-2.9883 4.0469-5.4648 3.5039-2.1445-0.46875-3.6094-2.3672-3.6094-4.4766 0-0.32422 0.035156-0.65625 0.10547-0.98828 0.76172-3.4766-1.4492-6.9258-4.9258-7.6875-1.6836-0.36719-3.4102-0.058594-4.8633 0.87109-1.4531 0.92969-2.4531 2.3711-2.8242 4.0547-0.54297 2.4766-2.9883 4.043-5.4648 3.5039-2.4766-0.54297-4.0469-2.9883-3.5039-5.4648 0-0.007813 0.003906-0.015625 0.003906-0.023438l7.793-35.609c0.75781-3.4688-1.4453-6.9102-4.918-7.6719-1.6875-0.37109-3.4102-0.058594-4.8594 0.875s-2.4492 2.375-2.8164 4.0586l-13.328 61.605c-1.5156 7.0039-1.0625 14.277 1.3125 21.039l3.4961 9.9531c2.3438 6.6719 3.1875 13.914 2.4414 20.941l-2.082 19.652c17.223 5.8594 35.129 8.75 53.328 8.6094l4.1797-15.234c2.3984-8.7383 7.8945-16.277 15.48-21.227l35.203-22.984c4.2188-2.7461 5.5508-8.3164 3.0312-12.676z"/>
  <path d="m494.66 463.54c-14.445-25.695-32.324-47.367-53.348-64.617 1.2812 3.7578 2.1133 7.4023 2.3945 10.789 1.582 19.031-13.07 39.754-18.391 46.586 2.9336 6.8789 9.9648 25.691 8.1367 44.426-1.9961 20.457-17.727 43.289-39.883 59.285h84.621l14.848-91.621c0.28125-1.7227 0.83203-3.3516 1.6211-4.8477z"/>
  <path d="m254.27 278.77c-2.6523-4.4219-5.1484-9.8164-7.457-16.02-13.371-0.26953-26.355-10.41-31.832-25.402-7.0273-19.254 0.38281-40.18 16.523-46.648 0.28125-0.11328 0.56641-0.21484 0.84766-0.31641-0.64453-9.375-1.1875-33.875 8.5078-52.953 4.8867-9.6172 16.055-20.613 27.875-32.258 17.109-16.852 36.5-35.953 38.664-52.73 2.8516-22.105-7.9141-36.168-12.523-41.066-18.082 8.293-33.836 21.102-47.121 38.371-18.363 23.875-26.496 67.266-31.355 93.188-1.043 5.5703-1.9453 10.379-2.7578 13.922-1.957 8.5234-5.6602 17.195-9.2461 25.582-4.75 11.109-9.2344 21.602-9.2344 30.41s4.1914 20.082 7.8867 30.027c3.0312 8.1523 5.8945 15.852 6.6172 22.227 0.72266 6.3633 0.042969 13.301-0.61328 20.012-0.81641 8.3594-1.5898 16.258 0.26172 22.227 1.2656 4.0742 4.1328 7.5625 7.4531 11.602 5.3242 6.4766 11.355 13.816 12.645 25.902 1.1641 10.926-0.80469 18.691-2.7109 26.199-1.4258 5.6133-2.7695 10.914-2.7695 17.492 0 9.3984 6.2656 16.906 10.152 20.66 10.461-10.859 21.855-20.496 34.133-28.848 2.3945-3.4961 5.0859-6.9102 8.0312-10.141 12.094-13.258 26.73-21.766 41.617-24.277v-15.754c-29.996-10.965-53.645-34.824-63.594-51.406z"/>
  <path d="m266.55 500.71c-1.8281-18.734 5.2031-37.547 8.1367-44.426-5.3203-6.832-19.969-27.555-18.391-46.586 0.28125-3.3828 1.1133-7.0273 2.3945-10.789-21.02 17.25-38.902 38.922-53.348 64.617 0.78906 1.4961 1.3398 3.125 1.6211 4.8398l14.848 91.621h84.621c-22.156-15.988-37.887-38.816-39.883-59.277z"/>
  <path d="m129.17 465.84c18.203 0.14453 36.105-2.75 53.328-8.6094l-2.082-19.656c-0.74609-7.0273 0.097657-14.27 2.4414-20.941l3.4961-9.9531c2.375-6.7617 2.8281-14.035 1.3125-21.039l-13.328-61.605c-0.36328-1.6836-1.3633-3.125-2.8164-4.0586-1.4492-0.93359-3.1758-1.2422-4.8594-0.875-3.4688 0.75781-5.6758 4.1992-4.918 7.6719l7.793 35.609c0 0.007813 0.003906 0.015626 0.003906 0.023438 0.54297 2.4766-1.0273 4.9258-3.5039 5.4648-2.4805 0.53906-4.9219-1.0273-5.4648-3.5039-0.36719-1.6836-1.3711-3.125-2.8242-4.0547-1.4492-0.92969-3.1758-1.2383-4.8633-0.87109-3.4766 0.76172-5.6875 4.2109-4.9258 7.6875 0.074219 0.33203 0.10547 0.66406 0.10547 0.98828 0 2.1094-1.4648 4.0078-3.6094 4.4766-2.4805 0.54297-4.9258-1.0273-5.4648-3.5039-0.36719-1.6836-1.3711-3.125-2.8203-4.0547-1.4531-0.92969-3.1797-1.2383-4.8633-0.87109-1.6836 0.36719-3.125 1.3711-4.0547 2.8203-0.92969 1.4531-1.2422 3.1797-0.87109 4.8633 0.54297 2.4766-1.0273 4.9258-3.5039 5.4648-2.4805 0.54297-4.9219-1.0273-5.4648-3.5039 0-0.003906-0.003906-0.011719-0.003906-0.015625l-11.855-54.168c-0.36719-1.6836-1.3711-3.125-2.8203-4.0547-1.4531-0.92969-3.1797-1.2422-4.8633-0.87109-1.6836 0.36719-3.125 1.3711-4.0547 2.8242-0.92969 1.4531-1.2422 3.1797-0.87109 4.8633l16.035 73.273c0.38672 1.7734-0.30859 3.6133-1.7734 4.6875-1.4648 1.0742-3.4297 1.1797-5.0039 0.26953l-17.973-10.375c-4.5273-2.6172-10.34-1.0586-12.953 3.4688-2.5156 4.3594-1.1875 9.9297 3.0273 12.68l35.203 22.984c7.5859 4.9531 13.086 12.492 15.48 21.227z"/>
  <path d="m265.45 410.46c-1.5703 18.883 17.875 41.926 18.074 42.16 1.1836 1.3867 1.4336 3.3516 0.63672 4.9922-0.10156 0.21094-10.457 21.824-8.4688 42.211 1.9297 19.766 18.898 42.316 42.188 56.832v-201.4c-28.098 5.7148-50.855 36.258-52.43 55.207z"/>
  <use x="70" y="577.214844" xlink:href="#v"/>
  <use x="74.210937" y="577.214844" xlink:href="#d"/>
  <use x="77.042969" y="577.214844" xlink:href="#b"/>
  <use x="80.933594" y="577.214844" xlink:href="#l"/>
  <use x="84.804688" y="577.214844" xlink:href="#a"/>
  <use x="87.546875" y="577.214844" xlink:href="#b"/>
  <use x="91.441406" y="577.214844" xlink:href="#f"/>
  <use x="97.542969" y="577.214844" xlink:href="#k"/>
  <use x="101.652344" y="577.214844" xlink:href="#e"/>
  <use x="107.390625" y="577.214844" xlink:href="#j"/>
  <use x="111.828125" y="577.214844" xlink:href="#i"/>
  <use x="117.808594" y="577.214844" xlink:href="#b"/>
  <use x="121.699219" y="577.214844" xlink:href="#a"/>
  <use x="124.441406" y="577.214844" xlink:href="#h"/>
  <use x="128.527344" y="577.214844" xlink:href="#e"/>
  <use x="132.265625" y="577.214844" xlink:href="#u"/>
  <use x="135.683594" y="577.214844" xlink:href="#a"/>
  <use x="140.421875" y="577.214844" xlink:href="#t"/>
  <use x="144.554688" y="577.214844" xlink:href="#a"/>
  <use x="147.296875" y="577.214844" xlink:href="#g"/>
  <use x="151.382812" y="577.214844" xlink:href="#f"/>
  <use x="155.488281" y="577.214844" xlink:href="#s"/>
  <use x="157.457031" y="577.214844" xlink:href="#c"/>
  <use x="70" y="582.949219" xlink:href="#r"/>
  <use x="72.496094" y="582.949219" xlink:href="#d"/>
  <use x="75.328125" y="582.949219" xlink:href="#c"/>
  <use x="79.269531" y="582.949219" xlink:href="#i"/>
  <use x="87.246094" y="582.949219" xlink:href="#a"/>
  <use x="89.988281" y="582.949219" xlink:href="#h"/>
  <use x="94.074219" y="582.949219" xlink:href="#b"/>
  <use x="99.960938" y="582.949219" xlink:href="#q"/>
  <use x="104.765625" y="582.949219" xlink:href="#c"/>
  <use x="108.707031" y="582.949219" xlink:href="#g"/>
  <use x="112.789062" y="582.949219" xlink:href="#p"/>
  <use x="118.871094" y="582.949219" xlink:href="#o"/>
  <use x="123.078125" y="582.949219" xlink:href="#d"/>
  <use x="125.90625" y="582.949219" xlink:href="#c"/>
  <use x="129.851562" y="582.949219" xlink:href="#n"/>
  <use x="131.816406" y="582.949219" xlink:href="#b"/>
  <use x="135.707031" y="582.949219" xlink:href="#m"/>
  <use x="139.109375" y="582.949219" xlink:href="#a"/>
 </g>
</svg>
